<mxfile host="Electron" modified="2024-04-25T08:22:21.457Z" agent="Mozilla/5.0 (Windows NT 10.0; Win64; x64) AppleWebKit/537.36 (KHTML, like Gecko) draw.io/21.2.8 Chrome/112.0.5615.165 Electron/24.2.0 Safari/537.36" etag="F_rp5Bz1GXY34z2qYADx" version="21.2.8" type="device">
  <diagram name="Page-1" id="ac0-5Axkzdwwxx8cRdzC">
    <mxGraphModel dx="1538" dy="463" grid="1" gridSize="10" guides="1" tooltips="1" connect="1" arrows="1" fold="1" page="1" pageScale="1" pageWidth="827" pageHeight="1169" math="0" shadow="0">
      <root>
        <mxCell id="0" />
        <mxCell id="1" parent="0" />
        <mxCell id="zn5Z8J5lU8SQC-b0vKBi-1" value="&lt;font face=&quot;Verdana&quot;&gt;&lt;span style=&quot;font-size: 16px;&quot;&gt;&lt;b style=&quot;&quot;&gt;1&lt;/b&gt;&lt;/span&gt;&lt;/font&gt;" style="ellipse;whiteSpace=wrap;html=1;aspect=fixed;fillColor=#d5e8d4;strokeColor=#000000;" parent="1" vertex="1">
          <mxGeometry x="40" y="180" width="40" height="40" as="geometry" />
        </mxCell>
        <mxCell id="bDHwR__0A869CU3IP3uC-1" value="&lt;b&gt;&lt;font style=&quot;font-size: 16px;&quot; face=&quot;Verdana&quot;&gt;1&lt;/font&gt;&lt;/b&gt;" style="ellipse;whiteSpace=wrap;html=1;aspect=fixed;fillColor=#d5e8d4;strokeColor=#000000;" parent="1" vertex="1">
          <mxGeometry x="200" y="180" width="40" height="40" as="geometry" />
        </mxCell>
        <mxCell id="bDHwR__0A869CU3IP3uC-2" value="&lt;b&gt;&lt;font style=&quot;font-size: 16px;&quot; face=&quot;Verdana&quot;&gt;2&lt;/font&gt;&lt;/b&gt;" style="ellipse;whiteSpace=wrap;html=1;aspect=fixed;fillColor=#d5e8d4;strokeColor=#000000;" parent="1" vertex="1">
          <mxGeometry x="-40" y="303" width="40" height="40" as="geometry" />
        </mxCell>
        <mxCell id="bDHwR__0A869CU3IP3uC-3" value="&lt;b&gt;&lt;font style=&quot;font-size: 16px;&quot; face=&quot;Verdana&quot;&gt;3&lt;/font&gt;&lt;/b&gt;" style="ellipse;whiteSpace=wrap;html=1;aspect=fixed;fillColor=#d5e8d4;strokeColor=#000000;" parent="1" vertex="1">
          <mxGeometry x="120" y="303" width="40" height="40" as="geometry" />
        </mxCell>
        <mxCell id="bDHwR__0A869CU3IP3uC-4" value="&lt;b&gt;&lt;font style=&quot;font-size: 16px;&quot; face=&quot;Verdana&quot;&gt;4&lt;/font&gt;&lt;/b&gt;" style="ellipse;whiteSpace=wrap;html=1;aspect=fixed;fillColor=#d5e8d4;strokeColor=#000000;" parent="1" vertex="1">
          <mxGeometry x="270" y="303" width="40" height="40" as="geometry" />
        </mxCell>
        <mxCell id="bDHwR__0A869CU3IP3uC-8" value="&lt;font face=&quot;Verdana&quot; style=&quot;font-size: 16px;&quot;&gt;0&lt;/font&gt;" style="text;html=1;align=center;verticalAlign=middle;resizable=0;points=[];autosize=1;strokeColor=none;fillColor=none;" parent="1" vertex="1">
          <mxGeometry x="43" y="150" width="30" height="30" as="geometry" />
        </mxCell>
        <mxCell id="bDHwR__0A869CU3IP3uC-9" value="&lt;font face=&quot;Verdana&quot; style=&quot;font-size: 16px;&quot;&gt;1&lt;/font&gt;" style="text;html=1;align=center;verticalAlign=middle;resizable=0;points=[];autosize=1;strokeColor=none;fillColor=none;" parent="1" vertex="1">
          <mxGeometry x="203" y="151" width="30" height="30" as="geometry" />
        </mxCell>
        <mxCell id="bDHwR__0A869CU3IP3uC-10" value="&lt;font face=&quot;Verdana&quot; style=&quot;font-size: 16px;&quot;&gt;2&lt;/font&gt;" style="text;html=1;align=center;verticalAlign=middle;resizable=0;points=[];autosize=1;strokeColor=none;fillColor=none;" parent="1" vertex="1">
          <mxGeometry x="-35" y="273" width="30" height="30" as="geometry" />
        </mxCell>
        <mxCell id="bDHwR__0A869CU3IP3uC-11" value="&lt;font face=&quot;Verdana&quot; style=&quot;font-size: 16px;&quot;&gt;3&lt;/font&gt;" style="text;html=1;align=center;verticalAlign=middle;resizable=0;points=[];autosize=1;strokeColor=none;fillColor=none;" parent="1" vertex="1">
          <mxGeometry x="125" y="273" width="30" height="30" as="geometry" />
        </mxCell>
        <mxCell id="bDHwR__0A869CU3IP3uC-12" value="&lt;font face=&quot;Verdana&quot; style=&quot;font-size: 16px;&quot;&gt;4&lt;/font&gt;" style="text;html=1;align=center;verticalAlign=middle;resizable=0;points=[];autosize=1;strokeColor=none;fillColor=none;" parent="1" vertex="1">
          <mxGeometry x="273" y="273" width="30" height="30" as="geometry" />
        </mxCell>
        <mxCell id="UBDp1Sc5ucG-kMtfMw3t-1" value="" style="endArrow=classic;html=1;rounded=0;exitX=1;exitY=0;exitDx=0;exitDy=0;entryX=0;entryY=1;entryDx=0;entryDy=0;" edge="1" parent="1" source="bDHwR__0A869CU3IP3uC-2" target="bDHwR__0A869CU3IP3uC-1">
          <mxGeometry width="50" height="50" relative="1" as="geometry">
            <mxPoint x="200" y="300" as="sourcePoint" />
            <mxPoint x="250" y="250" as="targetPoint" />
          </mxGeometry>
        </mxCell>
        <mxCell id="UBDp1Sc5ucG-kMtfMw3t-2" value="" style="endArrow=classic;html=1;rounded=0;exitX=1;exitY=0;exitDx=0;exitDy=0;entryX=0.333;entryY=1.017;entryDx=0;entryDy=0;entryPerimeter=0;" edge="1" parent="1" source="bDHwR__0A869CU3IP3uC-3" target="bDHwR__0A869CU3IP3uC-1">
          <mxGeometry width="50" height="50" relative="1" as="geometry">
            <mxPoint x="200" y="300" as="sourcePoint" />
            <mxPoint x="250" y="250" as="targetPoint" />
          </mxGeometry>
        </mxCell>
        <mxCell id="UBDp1Sc5ucG-kMtfMw3t-5" value="" style="endArrow=classic;html=1;rounded=0;exitX=1;exitY=0.5;exitDx=0;exitDy=0;entryX=0;entryY=0.5;entryDx=0;entryDy=0;" edge="1" parent="1" source="zn5Z8J5lU8SQC-b0vKBi-1" target="bDHwR__0A869CU3IP3uC-1">
          <mxGeometry width="50" height="50" relative="1" as="geometry">
            <mxPoint x="200" y="300" as="sourcePoint" />
            <mxPoint x="250" y="250" as="targetPoint" />
          </mxGeometry>
        </mxCell>
        <mxCell id="UBDp1Sc5ucG-kMtfMw3t-6" value="&lt;font face=&quot;Verdana&quot;&gt;&lt;span style=&quot;font-size: 16px;&quot;&gt;&lt;b style=&quot;&quot;&gt;1&lt;/b&gt;&lt;/span&gt;&lt;/font&gt;" style="ellipse;whiteSpace=wrap;html=1;aspect=fixed;fillColor=#d5e8d4;strokeColor=#000000;" vertex="1" parent="1">
          <mxGeometry x="-370" y="180" width="40" height="40" as="geometry" />
        </mxCell>
        <mxCell id="UBDp1Sc5ucG-kMtfMw3t-7" value="&lt;b&gt;&lt;font style=&quot;font-size: 16px;&quot; face=&quot;Verdana&quot;&gt;0&lt;/font&gt;&lt;/b&gt;" style="ellipse;whiteSpace=wrap;html=1;aspect=fixed;fillColor=#d5e8d4;strokeColor=#000000;" vertex="1" parent="1">
          <mxGeometry x="-210" y="180" width="40" height="40" as="geometry" />
        </mxCell>
        <mxCell id="UBDp1Sc5ucG-kMtfMw3t-8" value="&lt;b&gt;&lt;font style=&quot;font-size: 16px;&quot; face=&quot;Verdana&quot;&gt;2&lt;/font&gt;&lt;/b&gt;" style="ellipse;whiteSpace=wrap;html=1;aspect=fixed;fillColor=#d5e8d4;strokeColor=#000000;" vertex="1" parent="1">
          <mxGeometry x="-450" y="303" width="40" height="40" as="geometry" />
        </mxCell>
        <mxCell id="UBDp1Sc5ucG-kMtfMw3t-9" value="&lt;b&gt;&lt;font style=&quot;font-size: 16px;&quot; face=&quot;Verdana&quot;&gt;3&lt;/font&gt;&lt;/b&gt;" style="ellipse;whiteSpace=wrap;html=1;aspect=fixed;fillColor=#d5e8d4;strokeColor=#000000;" vertex="1" parent="1">
          <mxGeometry x="-290" y="303" width="40" height="40" as="geometry" />
        </mxCell>
        <mxCell id="UBDp1Sc5ucG-kMtfMw3t-10" value="&lt;b&gt;&lt;font style=&quot;font-size: 16px;&quot; face=&quot;Verdana&quot;&gt;4&lt;/font&gt;&lt;/b&gt;" style="ellipse;whiteSpace=wrap;html=1;aspect=fixed;fillColor=#d5e8d4;strokeColor=#000000;" vertex="1" parent="1">
          <mxGeometry x="-140" y="303" width="40" height="40" as="geometry" />
        </mxCell>
        <mxCell id="UBDp1Sc5ucG-kMtfMw3t-11" value="&lt;font face=&quot;Verdana&quot; style=&quot;font-size: 16px;&quot;&gt;0&lt;/font&gt;" style="text;html=1;align=center;verticalAlign=middle;resizable=0;points=[];autosize=1;strokeColor=none;fillColor=none;" vertex="1" parent="1">
          <mxGeometry x="-367" y="150" width="30" height="30" as="geometry" />
        </mxCell>
        <mxCell id="UBDp1Sc5ucG-kMtfMw3t-12" value="&lt;font face=&quot;Verdana&quot; style=&quot;font-size: 16px;&quot;&gt;1&lt;/font&gt;" style="text;html=1;align=center;verticalAlign=middle;resizable=0;points=[];autosize=1;strokeColor=none;fillColor=none;" vertex="1" parent="1">
          <mxGeometry x="-207" y="151" width="30" height="30" as="geometry" />
        </mxCell>
        <mxCell id="UBDp1Sc5ucG-kMtfMw3t-13" value="&lt;font face=&quot;Verdana&quot; style=&quot;font-size: 16px;&quot;&gt;2&lt;/font&gt;" style="text;html=1;align=center;verticalAlign=middle;resizable=0;points=[];autosize=1;strokeColor=none;fillColor=none;" vertex="1" parent="1">
          <mxGeometry x="-445" y="273" width="30" height="30" as="geometry" />
        </mxCell>
        <mxCell id="UBDp1Sc5ucG-kMtfMw3t-14" value="&lt;font face=&quot;Verdana&quot; style=&quot;font-size: 16px;&quot;&gt;3&lt;/font&gt;" style="text;html=1;align=center;verticalAlign=middle;resizable=0;points=[];autosize=1;strokeColor=none;fillColor=none;" vertex="1" parent="1">
          <mxGeometry x="-285" y="273" width="30" height="30" as="geometry" />
        </mxCell>
        <mxCell id="UBDp1Sc5ucG-kMtfMw3t-15" value="&lt;font face=&quot;Verdana&quot; style=&quot;font-size: 16px;&quot;&gt;4&lt;/font&gt;" style="text;html=1;align=center;verticalAlign=middle;resizable=0;points=[];autosize=1;strokeColor=none;fillColor=none;" vertex="1" parent="1">
          <mxGeometry x="-137" y="273" width="30" height="30" as="geometry" />
        </mxCell>
        <mxCell id="UBDp1Sc5ucG-kMtfMw3t-16" value="" style="endArrow=classic;html=1;rounded=0;exitX=1;exitY=0;exitDx=0;exitDy=0;entryX=0;entryY=1;entryDx=0;entryDy=0;" edge="1" parent="1" source="UBDp1Sc5ucG-kMtfMw3t-8" target="UBDp1Sc5ucG-kMtfMw3t-7">
          <mxGeometry width="50" height="50" relative="1" as="geometry">
            <mxPoint x="-210" y="300" as="sourcePoint" />
            <mxPoint x="-160" y="250" as="targetPoint" />
          </mxGeometry>
        </mxCell>
        <mxCell id="UBDp1Sc5ucG-kMtfMw3t-17" value="" style="endArrow=classic;html=1;rounded=0;exitX=1;exitY=0;exitDx=0;exitDy=0;entryX=0.333;entryY=1.017;entryDx=0;entryDy=0;entryPerimeter=0;" edge="1" parent="1" source="UBDp1Sc5ucG-kMtfMw3t-9" target="UBDp1Sc5ucG-kMtfMw3t-7">
          <mxGeometry width="50" height="50" relative="1" as="geometry">
            <mxPoint x="-210" y="300" as="sourcePoint" />
            <mxPoint x="-160" y="250" as="targetPoint" />
          </mxGeometry>
        </mxCell>
        <mxCell id="UBDp1Sc5ucG-kMtfMw3t-20" value="" style="endArrow=classic;html=1;rounded=0;exitX=0;exitY=0.5;exitDx=0;exitDy=0;entryX=1;entryY=0.5;entryDx=0;entryDy=0;" edge="1" parent="1" source="UBDp1Sc5ucG-kMtfMw3t-10" target="UBDp1Sc5ucG-kMtfMw3t-9">
          <mxGeometry width="50" height="50" relative="1" as="geometry">
            <mxPoint x="-110" y="300" as="sourcePoint" />
            <mxPoint x="-60" y="250" as="targetPoint" />
          </mxGeometry>
        </mxCell>
        <mxCell id="UBDp1Sc5ucG-kMtfMw3t-21" value="" style="endArrow=classic;html=1;rounded=0;exitX=0;exitY=0.5;exitDx=0;exitDy=0;entryX=1;entryY=0.5;entryDx=0;entryDy=0;" edge="1" parent="1" source="bDHwR__0A869CU3IP3uC-4" target="bDHwR__0A869CU3IP3uC-3">
          <mxGeometry width="50" height="50" relative="1" as="geometry">
            <mxPoint x="110" y="280" as="sourcePoint" />
            <mxPoint x="160" y="230" as="targetPoint" />
          </mxGeometry>
        </mxCell>
        <mxCell id="UBDp1Sc5ucG-kMtfMw3t-22" value="" style="endArrow=classic;html=1;rounded=0;exitX=0;exitY=0.5;exitDx=0;exitDy=0;entryX=1;entryY=0.5;entryDx=0;entryDy=0;" edge="1" parent="1" source="UBDp1Sc5ucG-kMtfMw3t-7" target="UBDp1Sc5ucG-kMtfMw3t-6">
          <mxGeometry width="50" height="50" relative="1" as="geometry">
            <mxPoint x="-120" y="250" as="sourcePoint" />
            <mxPoint x="-70" y="200" as="targetPoint" />
          </mxGeometry>
        </mxCell>
        <mxCell id="UBDp1Sc5ucG-kMtfMw3t-23" value="&lt;font style=&quot;font-size: 16px;&quot;&gt;多连少&lt;/font&gt;" style="text;html=1;align=center;verticalAlign=middle;resizable=0;points=[];autosize=1;strokeColor=none;fillColor=none;" vertex="1" parent="1">
          <mxGeometry x="-305" y="380" width="70" height="30" as="geometry" />
        </mxCell>
        <mxCell id="UBDp1Sc5ucG-kMtfMw3t-24" value="&lt;font style=&quot;font-size: 16px;&quot;&gt;少连多&lt;/font&gt;" style="text;html=1;align=center;verticalAlign=middle;resizable=0;points=[];autosize=1;strokeColor=none;fillColor=none;" vertex="1" parent="1">
          <mxGeometry x="105" y="379" width="70" height="30" as="geometry" />
        </mxCell>
      </root>
    </mxGraphModel>
  </diagram>
</mxfile>
